
<svg version="1.1" xmlns="http://www.w3.org/2000/svg" xmlns:xlink="http://www.w3.org/1999/xlink" x="0px" y="0px" viewBox="0 0 1000 1000" enable-background="new 0 0 1000 1000" xml:space="preserve">
<metadata> Svg Vector Icons : http://www.onlinewebfonts.com/icon </metadata>
<g><path d="M500,10C229.4,10,10,229.4,10,500c0,270.6,219.4,490,490,490s490-219.4,490-490C990,229.4,770.6,10,500,10z M593.4,731.6H318.9c-22.9,0-41.5-18.6-41.5-41.5c0-22.9,18.6-41.5,41.5-41.5h274.5c23,0,41.5,18.6,41.5,41.5C634.9,713,616.4,731.6,593.4,731.6z M723.5,576.2H315.3c-24.9,0-45.1-20.2-45.1-45.2c0-24.9,20.2-45.1,45.1-45.1h408.2c25,0,45.2,20.2,45.2,45.1C768.6,556,748.4,576.2,723.5,576.2z M728.9,417.3H320.7c-23.9,0-43.3-19.4-43.3-43.4c0-23.9,19.4-43.3,43.3-43.3h408.2c23.9,0,43.4,19.4,43.4,43.3C772.2,397.9,752.8,417.3,728.9,417.3z"/></g>
</svg>